<?xml version="1.0" encoding="UTF-8"?>
<svg width="512" height="512" viewBox="0 0 512 512" fill="none" xmlns="http://www.w3.org/2000/svg">
  <!-- Background gradient -->
  <defs>
    <linearGradient id="bgGradient" x1="0%" y1="0%" x2="100%" y2="100%">
      <stop offset="0%" stop-color="#1A1E2C" />
      <stop offset="100%" stop-color="#131620" />
    </linearGradient>
    <linearGradient id="waveGradient" x1="0%" y1="0%" x2="100%" y2="0%">
      <stop offset="0%" stop-color="#4361EE" />
      <stop offset="100%" stop-color="#7209B7" />
    </linearGradient>
    <linearGradient id="spectrumGradient" x1="0%" y1="100%" x2="0%" y2="0%">
      <stop offset="0%" stop-color="#4CC9F0" />
      <stop offset="50%" stop-color="#4361EE" />
      <stop offset="100%" stop-color="#7209B7" />
    </linearGradient>
    <filter id="glow" x="-20%" y="-20%" width="140%" height="140%">
      <feGaussianBlur stdDeviation="8" result="blur" />
      <feComposite in="SourceGraphic" in2="blur" operator="over" />
    </filter>
  </defs>
  
  <!-- Main background -->
  <rect width="512" height="512" rx="80" fill="url(#bgGradient)" />
  
  <!-- Waveform visualization -->
  <path d="M80 256 
    Q 100 190, 120 256 
    Q 140 310, 160 256 
    Q 180 190, 200 256 
    Q 220 330, 240 256 
    Q 260 150, 280 256
    Q 300 350, 320 256
    Q 340 200, 360 256
    Q 380 300, 400 256
    Q 420 220, 440 256"
    stroke="url(#waveGradient)" stroke-width="8" stroke-linecap="round" fill="none" filter="url(#glow)" />
  
  <!-- Spectrum bars -->
  <g opacity="0.9">
    <rect x="86" y="320" width="16" height="60" rx="8" fill="url(#spectrumGradient)" />
    <rect x="114" y="300" width="16" height="80" rx="8" fill="url(#spectrumGradient)" />
    <rect x="142" y="350" width="16" height="30" rx="8" fill="url(#spectrumGradient)" />
    <rect x="170" y="280" width="16" height="100" rx="8" fill="url(#spectrumGradient)" />
    <rect x="198" y="330" width="16" height="50" rx="8" fill="url(#spectrumGradient)" />
    <rect x="226" y="270" width="16" height="110" rx="8" fill="url(#spectrumGradient)" />
    <rect x="254" y="310" width="16" height="70" rx="8" fill="url(#spectrumGradient)" />
    <rect x="282" y="260" width="16" height="120" rx="8" fill="url(#spectrumGradient)" />
    <rect x="310" y="290" width="16" height="90" rx="8" fill="url(#spectrumGradient)" />
    <rect x="338" y="330" width="16" height="50" rx="8" fill="url(#spectrumGradient)" />
    <rect x="366" y="300" width="16" height="80" rx="8" fill="url(#spectrumGradient)" />
    <rect x="394" y="320" width="16" height="60" rx="8" fill="url(#spectrumGradient)" />
    <rect x="422" y="340" width="16" height="40" rx="8" fill="url(#spectrumGradient)" />
  </g>
  
  <!-- Circular music element -->
  <circle cx="256" cy="170" r="50" fill="none" stroke-width="10" stroke="url(#waveGradient)" opacity="0.7" />
  <circle cx="256" cy="170" r="20" fill="url(#waveGradient)" />
  
  <!-- Small decorative elements -->
  <circle cx="150" cy="150" r="6" fill="#4CC9F0" opacity="0.8" />
  <circle cx="170" cy="130" r="3" fill="#4CC9F0" opacity="0.6" />
  <circle cx="360" cy="140" r="8" fill="#7209B7" opacity="0.8" />
  <circle cx="380" cy="170" r="4" fill="#7209B7" opacity="0.6" />
  
  <!-- Pulse effect circles -->
  <circle cx="256" cy="170" r="65" fill="none" stroke="#4361EE" stroke-width="2" opacity="0.3">
    <animate attributeName="r" values="65;90;65" dur="3s" repeatCount="indefinite" />
    <animate attributeName="opacity" values="0.3;0;0.3" dur="3s" repeatCount="indefinite" />
  </circle>
  <circle cx="256" cy="170" r="80" fill="none" stroke="#4CC9F0" stroke-width="2" opacity="0.2">
    <animate attributeName="r" values="80;115;80" dur="4s" repeatCount="indefinite" />
    <animate attributeName="opacity" values="0.2;0;0.2" dur="4s" repeatCount="indefinite" />
  </circle>
</svg>